<mxfile host="app.diagrams.net" modified="2024-07-18T08:25:46.776Z" agent="Mozilla/5.0 (Windows NT 10.0; Win64; x64) AppleWebKit/537.36 (KHTML, like Gecko) Chrome/126.0.0.0 Safari/537.36" etag="21fSukRAvLJnZaNixiti" version="24.7.1" type="device">
  <diagram name="Page-1" id="SQ4E3G7dkNbU6KlDDa8O">
    <mxGraphModel dx="1434" dy="780" grid="1" gridSize="10" guides="1" tooltips="1" connect="1" arrows="1" fold="1" page="1" pageScale="1" pageWidth="850" pageHeight="1100" math="0" shadow="0">
      <root>
        <mxCell id="0" />
        <mxCell id="1" parent="0" />
        <mxCell id="PzN-DA0c4Yx9mm5Ohcgm-2" value="" style="rounded=0;whiteSpace=wrap;html=1;strokeWidth=3;strokeColor=#1A1A1A;" vertex="1" parent="1">
          <mxGeometry x="140" y="40" width="560" height="680" as="geometry" />
        </mxCell>
        <mxCell id="PzN-DA0c4Yx9mm5Ohcgm-6" value="" style="rounded=1;whiteSpace=wrap;html=1;fillColor=#d5e8d4;strokeColor=#82b366;" vertex="1" parent="1">
          <mxGeometry x="150" y="80" width="540" height="120" as="geometry" />
        </mxCell>
        <mxCell id="PzN-DA0c4Yx9mm5Ohcgm-7" value="block_number =&amp;nbsp; 15000000" style="text;html=1;align=center;verticalAlign=middle;whiteSpace=wrap;rounded=0;strokeWidth=3;fontSize=23;" vertex="1" parent="1">
          <mxGeometry x="160" y="50" width="520" height="30" as="geometry" />
        </mxCell>
        <mxCell id="PzN-DA0c4Yx9mm5Ohcgm-8" value="" style="rounded=1;whiteSpace=wrap;html=1;fillColor=#dae8fc;strokeColor=#6c8ebf;" vertex="1" parent="1">
          <mxGeometry x="150" y="240" width="540" height="120" as="geometry" />
        </mxCell>
        <mxCell id="PzN-DA0c4Yx9mm5Ohcgm-9" value="" style="rounded=1;whiteSpace=wrap;html=1;fillColor=#dae8fc;strokeColor=#6c8ebf;" vertex="1" parent="1">
          <mxGeometry x="150" y="400" width="540" height="120" as="geometry" />
        </mxCell>
        <mxCell id="PzN-DA0c4Yx9mm5Ohcgm-10" value="" style="rounded=1;whiteSpace=wrap;html=1;fillColor=#d5e8d4;strokeColor=#82b366;" vertex="1" parent="1">
          <mxGeometry x="150" y="560" width="540" height="120" as="geometry" />
        </mxCell>
        <mxCell id="PzN-DA0c4Yx9mm5Ohcgm-11" value="bundle_index =&amp;nbsp; 3, bundle_type = &#39;flashbots&#39;" style="text;html=1;align=left;verticalAlign=middle;whiteSpace=wrap;rounded=0;strokeWidth=3;fontSize=16;" vertex="1" parent="1">
          <mxGeometry x="170" y="80" width="320" height="40" as="geometry" />
        </mxCell>
        <mxCell id="PzN-DA0c4Yx9mm5Ohcgm-15" value="tx_hash = &quot;0x121..., tx_index = 2" style="rounded=0;whiteSpace=wrap;html=1;align=left;" vertex="1" parent="1">
          <mxGeometry x="170" y="110" width="490" height="20" as="geometry" />
        </mxCell>
        <mxCell id="PzN-DA0c4Yx9mm5Ohcgm-16" value="&lt;span style=&quot;&quot;&gt;tx_hash = &quot;0x845..., tx_index = 1&lt;/span&gt;" style="rounded=0;whiteSpace=wrap;html=1;align=left;" vertex="1" parent="1">
          <mxGeometry x="170" y="130" width="490" height="20" as="geometry" />
        </mxCell>
        <mxCell id="PzN-DA0c4Yx9mm5Ohcgm-17" value="&lt;span style=&quot;&quot;&gt;tx_hash = &quot;0x835..., tx_index = 0&lt;/span&gt;" style="rounded=0;whiteSpace=wrap;html=1;align=left;" vertex="1" parent="1">
          <mxGeometry x="170" y="150" width="490" height="20" as="geometry" />
        </mxCell>
        <mxCell id="PzN-DA0c4Yx9mm5Ohcgm-18" value="&lt;span style=&quot;&quot;&gt;tx_hash = &quot;0x824..., tx_index = 1&lt;/span&gt;" style="rounded=0;whiteSpace=wrap;html=1;align=left;" vertex="1" parent="1">
          <mxGeometry x="175" y="270" width="490" height="20" as="geometry" />
        </mxCell>
        <mxCell id="PzN-DA0c4Yx9mm5Ohcgm-19" value="&lt;span style=&quot;&quot;&gt;tx_hash = &quot;0x11a..., tx_index = 0&lt;/span&gt;" style="rounded=0;whiteSpace=wrap;html=1;align=left;" vertex="1" parent="1">
          <mxGeometry x="175" y="290" width="490" height="20" as="geometry" />
        </mxCell>
        <mxCell id="PzN-DA0c4Yx9mm5Ohcgm-25" value="bundle_index =&amp;nbsp; 2, bundle_type = &#39;mempool&#39;" style="text;html=1;align=left;verticalAlign=middle;whiteSpace=wrap;rounded=0;strokeWidth=3;fontSize=16;" vertex="1" parent="1">
          <mxGeometry x="176" y="240" width="320" height="40" as="geometry" />
        </mxCell>
        <mxCell id="PzN-DA0c4Yx9mm5Ohcgm-26" value="bundle_index =&amp;nbsp; 1, bundle_type = &#39;mempool&#39;" style="text;html=1;align=left;verticalAlign=middle;whiteSpace=wrap;rounded=0;strokeWidth=3;fontSize=16;" vertex="1" parent="1">
          <mxGeometry x="175" y="400" width="320" height="40" as="geometry" />
        </mxCell>
        <mxCell id="PzN-DA0c4Yx9mm5Ohcgm-27" value="bundle_index =&amp;nbsp; 0, bundle_type = &#39;flashbots&#39;" style="text;html=1;align=left;verticalAlign=middle;whiteSpace=wrap;rounded=0;strokeWidth=3;fontSize=16;" vertex="1" parent="1">
          <mxGeometry x="175" y="560" width="320" height="40" as="geometry" />
        </mxCell>
        <mxCell id="PzN-DA0c4Yx9mm5Ohcgm-30" value="&lt;span style=&quot;&quot;&gt;tx_hash = &quot;0x1b5..., tx_index = 3&lt;/span&gt;" style="rounded=0;whiteSpace=wrap;html=1;align=left;" vertex="1" parent="1">
          <mxGeometry x="175" y="430" width="490" height="20" as="geometry" />
        </mxCell>
        <mxCell id="PzN-DA0c4Yx9mm5Ohcgm-31" value="&lt;span style=&quot;&quot;&gt;tx_hash = &quot;0x100..., tx_index = 2&lt;/span&gt;" style="rounded=0;whiteSpace=wrap;html=1;align=left;" vertex="1" parent="1">
          <mxGeometry x="175" y="450" width="490" height="20" as="geometry" />
        </mxCell>
        <mxCell id="PzN-DA0c4Yx9mm5Ohcgm-32" value="&lt;span style=&quot;&quot;&gt;tx_hash = &quot;0x1ff..., tx_index = 1&lt;/span&gt;" style="rounded=0;whiteSpace=wrap;html=1;align=left;" vertex="1" parent="1">
          <mxGeometry x="175" y="470" width="490" height="20" as="geometry" />
        </mxCell>
        <mxCell id="PzN-DA0c4Yx9mm5Ohcgm-33" value="&lt;span style=&quot;&quot;&gt;tx_hash = &quot;0x91a..., tx_index = 0&lt;/span&gt;" style="rounded=0;whiteSpace=wrap;html=1;align=left;" vertex="1" parent="1">
          <mxGeometry x="175" y="490" width="490" height="20" as="geometry" />
        </mxCell>
        <mxCell id="PzN-DA0c4Yx9mm5Ohcgm-34" value="&lt;span style=&quot;&quot;&gt;tx_hash = &quot;0x132..., tx_index = 2&lt;/span&gt;" style="rounded=0;whiteSpace=wrap;html=1;align=left;" vertex="1" parent="1">
          <mxGeometry x="175" y="590" width="490" height="20" as="geometry" />
        </mxCell>
        <mxCell id="PzN-DA0c4Yx9mm5Ohcgm-35" value="&lt;span style=&quot;&quot;&gt;tx_hash = &quot;0x888..., tx_index = 1&lt;/span&gt;" style="rounded=0;whiteSpace=wrap;html=1;align=left;" vertex="1" parent="1">
          <mxGeometry x="175" y="610" width="490" height="20" as="geometry" />
        </mxCell>
        <mxCell id="PzN-DA0c4Yx9mm5Ohcgm-36" value="&lt;span style=&quot;&quot;&gt;tx_hash = &quot;0xa7a..., tx_index = 0&lt;/span&gt;" style="rounded=0;whiteSpace=wrap;html=1;align=left;" vertex="1" parent="1">
          <mxGeometry x="175" y="630" width="490" height="20" as="geometry" />
        </mxCell>
      </root>
    </mxGraphModel>
  </diagram>
</mxfile>
